<?xml version="1.0" encoding="UTF-8"?>
<!DOCTYPE svg PUBLIC "-//W3C//DTD SVG 1.1//EN" "http://www.w3.org/Graphics/SVG/1.1/DTD/svg11.dtd">
<svg xmlns="http://www.w3.org/2000/svg" version="1.1" width="56px" height="51px" style="shape-rendering:geometricPrecision; text-rendering:geometricPrecision; image-rendering:optimizeQuality; fill-rule:evenodd; clip-rule:evenodd" xmlns:xlink="http://www.w3.org/1999/xlink">
<g><path style="opacity:0.691" fill="#7306f6" d="M 41.5,10.5 C 40.6522,9.37505 39.6522,9.37505 38.5,10.5C 38.2089,9.35089 37.3756,8.68423 36,8.5C 28.6897,9.82798 21.523,11.6613 14.5,14C 15.0442,14.7172 15.7109,15.2172 16.5,15.5C 19.3538,17.7288 22.6871,19.0621 26.5,19.5C 26.1201,28.8936 26.1201,36.8936 26.5,43.5C 27.7199,45.0496 27.7199,46.7163 26.5,48.5C 24.0289,48.767 22.3622,47.767 21.5,45.5C 23.047,37.2233 23.547,28.89 23,20.5C 16.3469,18.7267 9.84688,16.5601 3.5,14C 16.7697,10.5158 30.103,7.3491 43.5,4.5C 43.405,6.7857 42.7384,8.7857 41.5,10.5 Z"/></g>
<g><path style="opacity:1" fill="#2f2c32" d="M 38.5,10.5 C 34.1275,21.277 30.1275,32.277 26.5,43.5C 26.1201,36.8936 26.1201,28.8936 26.5,19.5C 23.691,17.1034 20.3576,15.7701 16.5,15.5C 15.7109,15.2172 15.0442,14.7172 14.5,14C 21.523,11.6613 28.6897,9.82798 36,8.5C 37.3756,8.68423 38.2089,9.35089 38.5,10.5 Z"/></g>
<g><path style="opacity:0.997" fill="#2779cf" d="M 41.5,10.5 C 37.6182,23.8142 32.9516,36.8142 27.5,49.5C 26.8933,49.3764 26.56,49.0431 26.5,48.5C 27.7199,46.7163 27.7199,45.0496 26.5,43.5C 30.1275,32.277 34.1275,21.277 38.5,10.5C 39.6522,9.37505 40.6522,9.37505 41.5,10.5 Z"/></g>
<g><path style="opacity:1" fill="#1d78c2" d="M 16.5,15.5 C 20.3576,15.7701 23.691,17.1034 26.5,19.5C 22.6871,19.0621 19.3538,17.7288 16.5,15.5 Z"/></g>
</svg>
